<svg width="128" height="128" viewBox="0 0 128 128" xmlns="http://www.w3.org/2000/svg">
  <rect width="128" height="128" fill="#4F46E5" rx="16"/>
  <path d="M64 24C48.5 24 36 36.5 36 52C36 67.5 48.5 80 64 80C79.5 80 92 67.5 92 52C92 36.5 79.5 24 64 24ZM64 72C48.5 72 36 81.5 36 96C36 111.5 48.5 124 64 124C79.5 124 92 111.5 92 96C92 81.5 79.5 72 64 72Z" fill="white"/>
  <circle cx="64" cy="52" r="8" fill="#4F46E5"/>
  <circle cx="64" cy="96" r="8" fill="#4F46E5"/>
  <path d="M32 64L48 64M80 64L96 64" stroke="white" stroke-width="8" stroke-linecap="round"/>
  <path d="M64 32L64 48M64 80L64 96" stroke="white" stroke-width="8" stroke-linecap="round"/>
  <path d="M48 40L56 48M72 80L80 88" stroke="white" stroke-width="4" stroke-linecap="round"/>
  <path d="M80 40L72 48M56 80L48 88" stroke="white" stroke-width="4" stroke-linecap="round"/>
</svg>
