<svg width="48" height="48" viewBox="0 0 48 48" xmlns="http://www.w3.org/2000/svg">
  <rect width="48" height="48" fill="#4F46E5" rx="6"/>
  <path d="M24 9C18.5 9 14 13.5 14 19C14 24.5 18.5 29 24 29C29.5 29 34 24.5 34 19C34 13.5 29.5 9 24 9ZM24 27C18.5 27 14 30.5 14 36C14 41.5 18.5 46 24 46C29.5 46 34 41.5 34 36C34 30.5 29.5 27 24 27Z" fill="white"/>
  <circle cx="24" cy="19" r="3" fill="#4F46E5"/>
  <circle cx="24" cy="36" r="3" fill="#4F46E5"/>
  <path d="M12 24L18 24M30 24L36 24" stroke="white" stroke-width="3" stroke-linecap="round"/>
  <path d="M24 12L24 18M24 30L24 36" stroke="white" stroke-width="3" stroke-linecap="round"/>
</svg>
