<svg width="32" height="32" viewBox="0 0 32 32" xmlns="http://www.w3.org/2000/svg">
  <rect width="32" height="32" fill="#4F46E5" rx="4"/>
  <path d="M16 6C12.5 6 10 8.5 10 12C10 15.5 12.5 18 16 18C19.5 18 22 15.5 22 12C22 8.5 19.5 6 16 6ZM16 18C12.5 18 10 20.5 10 24C10 27.5 12.5 30 16 30C19.5 30 22 27.5 22 24C22 20.5 19.5 18 16 18Z" fill="white"/>
  <circle cx="16" cy="12" r="2" fill="#4F46E5"/>
  <circle cx="16" cy="24" r="2" fill="#4F46E5"/>
  <path d="M8 16L12 16M20 16L24 16" stroke="white" stroke-width="2" stroke-linecap="round"/>
</svg>
